<svg width="64" height="64" viewBox="0 0 64 64" fill="none" xmlns="http://www.w3.org/2000/svg">
<rect width="64" height="64" rx="15" fill="white"/>
<path d="M24.3716 38.5317C27.8645 38.5317 30.6961 35.7001 30.6961 32.2072C30.6961 28.7143 27.8645 25.8828 24.3716 25.8828C20.8787 25.8828 18.0471 28.7143 18.0471 32.2072C18.0471 35.7001 20.8787 38.5317 24.3716 38.5317Z" fill="#3BB74B"/>
<path d="M35.6502 24.4606L37.1274 23.2865L47.9572 32.9526L46.48 34.1267L35.6502 24.4606Z" fill="black"/>
<path fill-rule="evenodd" clip-rule="evenodd" d="M37.1355 23L35.31 24.4509L46.4717 34.4132L48.2972 32.9624L37.1355 23ZM37.1191 23.5731L47.617 32.9429L46.488 33.8402L35.9902 24.4703L37.1191 23.5731Z" fill="black"/>
<path d="M37.0009 41.2346L35.5203 39.9743L46.6069 31.8032L48.0875 33.0634L37.0009 41.2346Z" fill="black"/>
<path fill-rule="evenodd" clip-rule="evenodd" d="M35.1755 39.9622L36.9911 41.5076L48.4319 33.0755L46.6163 31.5301L35.1755 39.9622ZM35.8646 39.9864L46.5971 32.0762L47.7428 33.0514L37.0103 40.9615L35.8646 39.9864Z" fill="black"/>
<path d="M34.0062 23.8592L35.1338 24.5695L33.7972 40.5553L32.6696 39.8449L34.0062 23.8592Z" fill="black"/>
<path fill-rule="evenodd" clip-rule="evenodd" d="M35.3162 24.4785L33.856 23.5586L32.4867 39.936L33.9468 40.8559L35.3162 24.4785ZM34.9509 24.6606L33.647 40.2547L32.852 39.7538L34.1558 24.1598L34.9509 24.6606Z" fill="black"/>
<path d="M15.7817 24.4606L14.3044 23.2865L3.47468 32.9526L4.9519 34.1267L15.7817 24.4606Z" fill="black"/>
<path fill-rule="evenodd" clip-rule="evenodd" d="M14.2961 23L16.1217 24.4509L4.95997 34.4132L3.13446 32.9624L14.2961 23ZM14.3125 23.5731L3.81467 32.9429L4.9436 33.8402L15.4414 24.4703L14.3125 23.5731Z" fill="black"/>
<path d="M14.431 41.2346L15.9116 39.9743L4.825 31.8032L3.34437 33.0634L14.431 41.2346Z" fill="black"/>
<path fill-rule="evenodd" clip-rule="evenodd" d="M16.2561 39.9622L14.4405 41.5076L2.99977 33.0755L4.81537 31.5301L16.2561 39.9622ZM15.567 39.9864L4.8345 32.0762L3.68885 33.0514L14.4214 40.9615L15.567 39.9864Z" fill="black"/>
<path d="M52.6699 30.6782C53.5797 30.6469 54.4111 30.592 55.1641 30.5135C55.9171 30.4194 56.5681 30.2704 57.1172 30.0664C57.6662 29.8468 58.0898 29.5566 58.3879 29.1958C58.7016 28.835 58.8585 28.3644 58.8585 27.7839C58.8585 27.6428 58.8271 27.4937 58.7644 27.3369C58.7173 27.18 58.6232 27.0388 58.482 26.9133C58.3565 26.7721 58.1761 26.6623 57.9408 26.5839C57.7055 26.4897 57.4153 26.4427 57.0701 26.4427C56.5211 26.4427 56.0034 26.5603 55.5171 26.7956C55.0465 27.031 54.6229 27.3447 54.2464 27.7369C53.8699 28.1134 53.5483 28.5605 53.2817 29.0781C53.015 29.5801 52.811 30.1135 52.6699 30.6782ZM54.9053 37.4081C54.1052 37.4081 53.415 37.2982 52.8346 37.0786C52.2542 36.8433 51.7678 36.5296 51.3757 36.1374C50.9835 35.7295 50.6933 35.2589 50.505 34.7255C50.3168 34.1922 50.2227 33.6274 50.2227 33.0313C50.2227 31.9332 50.3874 30.8743 50.7168 29.8547C51.0462 28.835 51.5169 27.933 52.1287 27.1486C52.7405 26.3642 53.4856 25.7446 54.3641 25.2897C55.2426 24.8191 56.2387 24.5837 57.3525 24.5837C57.9957 24.5837 58.5447 24.67 58.9997 24.8426C59.4703 24.9995 59.8468 25.2191 60.1291 25.5015C60.4272 25.7838 60.6468 26.1133 60.788 26.4897C60.9292 26.8506 60.9998 27.227 60.9998 27.6192C60.9998 28.3565 60.8664 28.984 60.5998 29.5017C60.3331 30.0037 59.9801 30.4272 59.5409 30.7724C59.1016 31.1175 58.584 31.3842 57.9878 31.5724C57.4074 31.7607 56.7956 31.9097 56.1524 32.0195C55.5249 32.1293 54.8818 32.2077 54.2229 32.2548C53.5797 32.2862 52.9679 32.3176 52.3875 32.3489C52.3718 32.4744 52.364 32.5764 52.364 32.6548C52.364 32.7333 52.364 32.796 52.364 32.8431C52.364 33.2039 52.4032 33.549 52.4816 33.8784C52.5757 34.1922 52.7405 34.4745 52.9758 34.7255C53.2111 34.9609 53.5327 35.1491 53.9405 35.2903C54.3641 35.4315 54.9131 35.5021 55.5877 35.5021C55.8857 35.5021 56.1916 35.4785 56.5054 35.4315C56.8348 35.3687 57.1407 35.2981 57.4231 35.2197C57.7212 35.1256 57.98 35.0393 58.1996 34.9609C58.4349 34.8667 58.5996 34.7804 58.6938 34.702L58.882 36.5609C58.5683 36.7335 58.0584 36.9139 57.3525 37.1022C56.6623 37.3061 55.8465 37.4081 54.9053 37.4081Z" fill="black"/>
</svg>
