<svg width="85" height="39" viewBox="0 0 85 39" fill="none" xmlns="http://www.w3.org/2000/svg">
<path d="M31.2001 34.0839C36.2917 34.0839 40.4193 29.9563 40.4193 24.8647C40.4193 19.7731 36.2917 15.6455 31.2001 15.6455C26.1085 15.6455 21.981 19.7731 21.981 24.8647C21.981 29.9563 26.1085 34.0839 31.2001 34.0839Z" fill="#3BB74B"/>
<path d="M47.1899 13.5724L49.3433 11.861L65.1298 25.9512L62.9765 27.6627L47.1899 13.5724Z" fill="black" stroke="black" stroke-width="0.648525"/>
<path d="M49.1586 38.0238L47.0002 36.1867L63.1612 24.2756L65.3195 26.1127L49.1586 38.0238Z" fill="black" stroke="black" stroke-width="0.641231"/>
<path d="M44.7933 12.6957L46.437 13.7312L44.4887 37.0336L42.845 35.9981L44.7933 12.6957Z" fill="black" stroke="black" stroke-width="0.572935"/>
<path d="M19.1297 13.5724L16.9763 11.861L1.18977 25.9512L3.34311 27.6627L19.1297 13.5724Z" fill="black" stroke="black" stroke-width="0.648525"/>
<path d="M17.161 38.0238L19.3193 36.1867L3.15837 24.2756L1.00005 26.1127L17.161 38.0238Z" fill="black" stroke="black" stroke-width="0.641231"/>
<path d="M71.8917 22.6359C73.218 22.5901 74.4299 22.5101 75.5276 22.3957C76.6252 22.2585 77.5742 22.0413 78.3745 21.744C79.1749 21.4239 79.7923 21.0008 80.2268 20.4749C80.6841 19.9489 80.9128 19.2629 80.9128 18.4168C80.9128 18.211 80.8671 17.9938 80.7756 17.7651C80.707 17.5364 80.5698 17.3306 80.364 17.1477C80.1811 16.9419 79.9181 16.7818 79.5751 16.6675C79.2321 16.5303 78.809 16.4617 78.3059 16.4617C77.5056 16.4617 76.751 16.6332 76.0421 16.9762C75.3561 17.3192 74.7387 17.7766 74.1898 18.3482C73.641 18.897 73.1722 19.5488 72.7835 20.3034C72.3948 21.0351 72.0975 21.8126 71.8917 22.6359ZM75.1503 32.4459C73.984 32.4459 72.9779 32.2858 72.1318 31.9657C71.2857 31.6227 70.5768 31.1653 70.0051 30.5937C69.4334 29.9991 69.0104 29.3131 68.736 28.5356C68.4616 27.7581 68.3244 26.9349 68.3244 26.0659C68.3244 24.4652 68.5645 22.9217 69.0447 21.4353C69.5249 19.9489 70.2109 18.6341 71.1028 17.4907C71.9946 16.3473 73.0808 15.4441 74.3613 14.7809C75.6419 14.0949 77.094 13.7519 78.7176 13.7519C79.6551 13.7519 80.4555 13.8777 81.1186 14.1292C81.8046 14.3579 82.3535 14.678 82.7651 15.0896C83.1995 15.5013 83.5197 15.9815 83.7255 16.5303C83.9313 17.0562 84.0342 17.605 84.0342 18.1767C84.0342 19.2515 83.8398 20.1662 83.4511 20.9208C83.0623 21.6526 82.5478 22.27 81.9075 22.7731C81.2673 23.2761 80.5126 23.6649 79.6437 23.9393C78.7976 24.2137 77.9058 24.4309 76.9682 24.591C76.0535 24.7511 75.116 24.8654 74.1555 24.934C73.218 24.9797 72.3262 25.0255 71.4801 25.0712C71.4572 25.2542 71.4458 25.4028 71.4458 25.5171C71.4458 25.6315 71.4458 25.7229 71.4458 25.7915C71.4458 26.3175 71.5029 26.8206 71.6173 27.3008C71.7545 27.7581 71.9946 28.1697 72.3376 28.5356C72.6806 28.8786 73.1494 29.153 73.7439 29.3588C74.3613 29.5646 75.1617 29.6675 76.145 29.6675C76.5795 29.6675 77.0254 29.6332 77.4827 29.5646C77.9629 29.4732 78.4088 29.3703 78.8205 29.2559C79.2549 29.1187 79.6322 28.993 79.9524 28.8786C80.2954 28.7414 80.5355 28.6156 80.6727 28.5013L80.9471 31.2111C80.4898 31.4626 79.7466 31.7256 78.7176 32C77.7114 32.2973 76.5223 32.4459 75.1503 32.4459Z" fill="black"/>
</svg>
