<svg width="189" height="50" viewBox="0 0 189 50" fill="none" xmlns="http://www.w3.org/2000/svg">
<path d="M31.2001 34.0839C36.2917 34.0839 40.4193 29.9563 40.4193 24.8647C40.4193 19.7731 36.2917 15.6455 31.2001 15.6455C26.1085 15.6455 21.981 19.7731 21.981 24.8647C21.981 29.9563 26.1085 34.0839 31.2001 34.0839Z" fill="#3BB74B"/>
<path d="M47.1899 13.5724L49.3433 11.861L65.1298 25.9512L62.9765 27.6627L47.1899 13.5724Z" fill="black" stroke="black" stroke-width="0.648525"/>
<path d="M49.1586 38.0238L47.0002 36.1867L63.1612 24.2756L65.3195 26.1127L49.1586 38.0238Z" fill="black" stroke="black" stroke-width="0.641231"/>
<path d="M44.7933 12.6957L46.437 13.7312L44.4887 37.0336L42.845 35.9981L44.7933 12.6957Z" fill="black" stroke="black" stroke-width="0.572935"/>
<path d="M19.1297 13.5724L16.9763 11.861L1.18977 25.9512L3.34311 27.6627L19.1297 13.5724Z" fill="black" stroke="black" stroke-width="0.648525"/>
<path d="M17.161 38.0238L19.3193 36.1867L3.15837 24.2756L1.00005 26.1127L17.161 38.0238Z" fill="black" stroke="black" stroke-width="0.641231"/>
<path d="M71.8917 22.6359C73.218 22.5901 74.4299 22.5101 75.5276 22.3957C76.6252 22.2585 77.5742 22.0413 78.3745 21.744C79.1749 21.4239 79.7923 21.0008 80.2268 20.4749C80.6841 19.9489 80.9128 19.2629 80.9128 18.4168C80.9128 18.211 80.8671 17.9938 80.7756 17.7651C80.707 17.5364 80.5698 17.3306 80.364 17.1477C80.1811 16.9419 79.9181 16.7818 79.5751 16.6675C79.2321 16.5303 78.809 16.4617 78.3059 16.4617C77.5056 16.4617 76.751 16.6332 76.0421 16.9762C75.3561 17.3192 74.7387 17.7766 74.1898 18.3482C73.641 18.897 73.1722 19.5488 72.7835 20.3034C72.3948 21.0351 72.0975 21.8126 71.8917 22.6359ZM75.1503 32.4459C73.984 32.4459 72.9779 32.2858 72.1318 31.9657C71.2857 31.6227 70.5768 31.1653 70.0051 30.5937C69.4334 29.9991 69.0104 29.3131 68.736 28.5356C68.4616 27.7581 68.3244 26.9349 68.3244 26.0659C68.3244 24.4652 68.5645 22.9217 69.0447 21.4353C69.5249 19.9489 70.2109 18.6341 71.1028 17.4907C71.9946 16.3473 73.0808 15.4441 74.3613 14.7809C75.6419 14.0949 77.094 13.7519 78.7176 13.7519C79.6551 13.7519 80.4555 13.8777 81.1186 14.1292C81.8046 14.3579 82.3535 14.678 82.7651 15.0896C83.1995 15.5013 83.5197 15.9815 83.7255 16.5303C83.9313 17.0562 84.0342 17.605 84.0342 18.1767C84.0342 19.2515 83.8398 20.1662 83.4511 20.9208C83.0623 21.6526 82.5478 22.27 81.9075 22.7731C81.2673 23.2761 80.5126 23.6649 79.6437 23.9393C78.7976 24.2137 77.9058 24.4309 76.9682 24.591C76.0535 24.7511 75.116 24.8654 74.1555 24.934C73.218 24.9797 72.3262 25.0255 71.4801 25.0712C71.4572 25.2542 71.4458 25.4028 71.4458 25.5171C71.4458 25.6315 71.4458 25.7229 71.4458 25.7915C71.4458 26.3175 71.5029 26.8206 71.6173 27.3008C71.7545 27.7581 71.9946 28.1697 72.3376 28.5356C72.6806 28.8786 73.1494 29.153 73.7439 29.3588C74.3613 29.5646 75.1617 29.6675 76.145 29.6675C76.5795 29.6675 77.0254 29.6332 77.4827 29.5646C77.9629 29.4732 78.4088 29.3703 78.8205 29.2559C79.2549 29.1187 79.6322 28.993 79.9524 28.8786C80.2954 28.7414 80.5355 28.6156 80.6727 28.5013L80.9471 31.2111C80.4898 31.4626 79.7466 31.7256 78.7176 32C77.7114 32.2973 76.5223 32.4459 75.1503 32.4459Z" fill="black"/>
<path d="M104.88 39V12.72H121.224V16.896H109.308V23.916H120.288V28.092H109.38V39H104.88ZM134.422 39.36C132.742 39.36 131.278 39.036 130.03 38.388C128.782 37.74 127.81 36.84 127.114 35.688C126.442 34.512 126.106 33.144 126.106 31.584V26.616C126.106 25.056 126.442 23.7 127.114 22.548C127.81 21.372 128.782 20.46 130.03 19.812C131.278 19.164 132.742 18.84 134.422 18.84C136.078 18.84 137.518 19.164 138.742 19.812C139.99 20.46 140.95 21.372 141.622 22.548C142.318 23.7 142.666 25.056 142.666 26.616V30.18H130.462V31.584C130.462 32.976 130.798 34.032 131.47 34.752C132.142 35.448 133.138 35.796 134.458 35.796C135.466 35.796 136.282 35.628 136.906 35.292C137.53 34.932 137.926 34.416 138.094 33.744H142.522C142.186 35.448 141.274 36.816 139.786 37.848C138.322 38.856 136.534 39.36 134.422 39.36ZM138.31 27.66V26.58C138.31 25.212 137.986 24.168 137.338 23.448C136.69 22.704 135.718 22.332 134.422 22.332C133.126 22.332 132.142 22.704 131.47 23.448C130.798 24.192 130.462 25.248 130.462 26.616V27.372L138.634 27.3L138.31 27.66ZM156.008 39.36C154.328 39.36 152.864 39.036 151.616 38.388C150.368 37.74 149.396 36.84 148.7 35.688C148.028 34.512 147.692 33.144 147.692 31.584V26.616C147.692 25.056 148.028 23.7 148.7 22.548C149.396 21.372 150.368 20.46 151.616 19.812C152.864 19.164 154.328 18.84 156.008 18.84C157.664 18.84 159.104 19.164 160.328 19.812C161.576 20.46 162.536 21.372 163.208 22.548C163.904 23.7 164.252 25.056 164.252 26.616V30.18H152.048V31.584C152.048 32.976 152.384 34.032 153.056 34.752C153.728 35.448 154.724 35.796 156.044 35.796C157.052 35.796 157.868 35.628 158.492 35.292C159.116 34.932 159.512 34.416 159.68 33.744H164.108C163.772 35.448 162.86 36.816 161.372 37.848C159.908 38.856 158.12 39.36 156.008 39.36ZM159.896 27.66V26.58C159.896 25.212 159.572 24.168 158.924 23.448C158.276 22.704 157.304 22.332 156.008 22.332C154.712 22.332 153.728 22.704 153.056 23.448C152.384 24.192 152.048 25.248 152.048 26.616V27.372L160.22 27.3L159.896 27.66ZM175.866 39.36C173.898 39.36 172.302 38.676 171.078 37.308C169.878 35.94 169.278 34.104 169.278 31.8V26.436C169.278 24.108 169.878 22.26 171.078 20.892C172.278 19.524 173.874 18.84 175.866 18.84C177.498 18.84 178.794 19.308 179.754 20.244C180.714 21.156 181.194 22.416 181.194 24.024L180.186 22.98H181.23L181.086 18.264V12.72H185.586V39H181.194V35.22H180.186L181.194 34.176C181.194 35.784 180.714 37.056 179.754 37.992C178.794 38.904 177.498 39.36 175.866 39.36ZM177.45 35.472C178.602 35.472 179.49 35.136 180.114 34.464C180.762 33.768 181.086 32.808 181.086 31.584V26.616C181.086 25.392 180.762 24.444 180.114 23.772C179.49 23.076 178.602 22.728 177.45 22.728C176.298 22.728 175.398 23.064 174.75 23.736C174.102 24.408 173.778 25.368 173.778 26.616V31.584C173.778 32.832 174.102 33.792 174.75 34.464C175.398 35.136 176.298 35.472 177.45 35.472Z" fill="#323238"/>
</svg>
